<?xml version="1.0" encoding="utf-8" standalone="no"?>
<!DOCTYPE svg PUBLIC "-//W3C//DTD SVG 1.1//EN"
  "http://www.w3.org/Graphics/SVG/1.1/DTD/svg11.dtd">
<!-- Created with matplotlib (https://matplotlib.org/) -->
<svg height="436.233588pt" version="1.1" viewBox="0 0 401.690625 436.233588" width="401.690625pt" xmlns="http://www.w3.org/2000/svg" xmlns:xlink="http://www.w3.org/1999/xlink">
 <metadata>
  <rdf:RDF xmlns:cc="http://creativecommons.org/ns#" xmlns:dc="http://purl.org/dc/elements/1.1/" xmlns:rdf="http://www.w3.org/1999/02/22-rdf-syntax-ns#">
   <cc:Work>
    <dc:type rdf:resource="http://purl.org/dc/dcmitype/StillImage"/>
    <dc:date>2023-08-21T14:00:32.995380</dc:date>
    <dc:format>image/svg+xml</dc:format>
    <dc:creator>
     <cc:Agent>
      <dc:title>Matplotlib v3.3.1, https://matplotlib.org/</dc:title>
     </cc:Agent>
    </dc:creator>
   </cc:Work>
  </rdf:RDF>
 </metadata>
 <defs>
  <style type="text/css">*{stroke-linecap:butt;stroke-linejoin:round;}</style>
 </defs>
 <g id="figure_1">
  <g id="patch_1">
   <path d="M 0 436.233588 
L 401.690625 436.233588 
L 401.690625 0 
L 0 0 
z
" style="fill:none;"/>
  </g>
  <g id="axes_1">
   <g id="patch_2">
    <path d="M 59.690625 239.758125 
L 394.490625 239.758125 
L 394.490625 22.318125 
L 59.690625 22.318125 
z
" style="fill:#ffffff;"/>
   </g>
   <g id="patch_3">
    <path clip-path="url(#pd2d4ba7b03)" d="M 74.908807 239.758125 
L 78.407239 239.758125 
L 78.407239 32.672411 
L 74.908807 32.672411 
z
" style="fill:#0000ff;"/>
   </g>
   <g id="patch_4">
    <path clip-path="url(#pd2d4ba7b03)" d="M 78.407239 239.758125 
L 81.905672 239.758125 
L 81.905672 107.391764 
L 78.407239 107.391764 
z
" style="fill:#0000ff;"/>
   </g>
   <g id="patch_5">
    <path clip-path="url(#pd2d4ba7b03)" d="M 81.905672 239.758125 
L 85.404105 239.758125 
L 85.404105 108.644355 
L 81.905672 108.644355 
z
" style="fill:#0000ff;"/>
   </g>
   <g id="patch_6">
    <path clip-path="url(#pd2d4ba7b03)" d="M 85.404105 239.758125 
L 88.902537 239.758125 
L 88.902537 157.931479 
L 85.404105 157.931479 
z
" style="fill:#0000ff;"/>
   </g>
   <g id="patch_7">
    <path clip-path="url(#pd2d4ba7b03)" d="M 88.902537 239.758125 
L 92.40097 239.758125 
L 92.40097 178.26984 
L 88.902537 178.26984 
z
" style="fill:#0000ff;"/>
   </g>
   <g id="patch_8">
    <path clip-path="url(#pd2d4ba7b03)" d="M 92.40097 239.758125 
L 95.899402 239.758125 
L 95.899402 190.489558 
L 92.40097 190.489558 
z
" style="fill:#0000ff;"/>
   </g>
   <g id="patch_9">
    <path clip-path="url(#pd2d4ba7b03)" d="M 95.899402 239.758125 
L 99.397835 239.758125 
L 99.397835 194.553519 
L 95.899402 194.553519 
z
" style="fill:#0000ff;"/>
   </g>
   <g id="patch_10">
    <path clip-path="url(#pd2d4ba7b03)" d="M 99.397835 239.758125 
L 102.896268 239.758125 
L 102.896268 194.581354 
L 99.397835 194.581354 
z
" style="fill:#0000ff;"/>
   </g>
   <g id="patch_11">
    <path clip-path="url(#pd2d4ba7b03)" d="M 102.896268 239.758125 
L 106.3947 239.758125 
L 106.3947 208.062942 
L 102.896268 208.062942 
z
" style="fill:#0000ff;"/>
   </g>
   <g id="patch_12">
    <path clip-path="url(#pd2d4ba7b03)" d="M 106.3947 239.758125 
L 109.893133 239.758125 
L 109.893133 211.867106 
L 106.3947 211.867106 
z
" style="fill:#0000ff;"/>
   </g>
   <g id="patch_13">
    <path clip-path="url(#pd2d4ba7b03)" d="M 109.893133 239.758125 
L 113.391565 239.758125 
L 113.391565 212.275358 
L 109.893133 212.275358 
z
" style="fill:#0000ff;"/>
   </g>
   <g id="patch_14">
    <path clip-path="url(#pd2d4ba7b03)" d="M 113.391565 239.758125 
L 116.889998 239.758125 
L 116.889998 222.695056 
L 113.391565 222.695056 
z
" style="fill:#0000ff;"/>
   </g>
   <g id="patch_15">
    <path clip-path="url(#pd2d4ba7b03)" d="M 116.889998 239.758125 
L 120.388431 239.758125 
L 120.388431 225.190959 
L 116.889998 225.190959 
z
" style="fill:#0000ff;"/>
   </g>
   <g id="patch_16">
    <path clip-path="url(#pd2d4ba7b03)" d="M 120.388431 239.758125 
L 123.886863 239.758125 
L 123.886863 225.701274 
L 120.388431 225.701274 
z
" style="fill:#0000ff;"/>
   </g>
   <g id="patch_17">
    <path clip-path="url(#pd2d4ba7b03)" d="M 123.886863 239.758125 
L 127.385296 239.758125 
L 127.385296 227.148712 
L 123.886863 227.148712 
z
" style="fill:#0000ff;"/>
   </g>
   <g id="patch_18">
    <path clip-path="url(#pd2d4ba7b03)" d="M 127.385296 239.758125 
L 130.883728 239.758125 
L 130.883728 228.039443 
L 127.385296 228.039443 
z
" style="fill:#0000ff;"/>
   </g>
   <g id="patch_19">
    <path clip-path="url(#pd2d4ba7b03)" d="M 130.883728 239.758125 
L 134.382161 239.758125 
L 134.382161 228.661099 
L 130.883728 228.661099 
z
" style="fill:#0000ff;"/>
   </g>
   <g id="patch_20">
    <path clip-path="url(#pd2d4ba7b03)" d="M 134.382161 239.758125 
L 137.880594 239.758125 
L 137.880594 230.795143 
L 134.382161 230.795143 
z
" style="fill:#0000ff;"/>
   </g>
   <g id="patch_21">
    <path clip-path="url(#pd2d4ba7b03)" d="M 137.880594 239.758125 
L 141.379026 239.758125 
L 141.379026 230.86937 
L 137.880594 230.86937 
z
" style="fill:#0000ff;"/>
   </g>
   <g id="patch_22">
    <path clip-path="url(#pd2d4ba7b03)" d="M 141.379026 239.758125 
L 144.877459 239.758125 
L 144.877459 231.658039 
L 141.379026 231.658039 
z
" style="fill:#0000ff;"/>
   </g>
   <g id="patch_23">
    <path clip-path="url(#pd2d4ba7b03)" d="M 144.877459 239.758125 
L 148.375891 239.758125 
L 148.375891 234.710648 
L 144.877459 234.710648 
z
" style="fill:#0000ff;"/>
   </g>
   <g id="patch_24">
    <path clip-path="url(#pd2d4ba7b03)" d="M 148.375891 239.758125 
L 151.874324 239.758125 
L 151.874324 235.981796 
L 148.375891 235.981796 
z
" style="fill:#0000ff;"/>
   </g>
   <g id="patch_25">
    <path clip-path="url(#pd2d4ba7b03)" d="M 151.874324 239.758125 
L 155.372757 239.758125 
L 155.372757 236.102416 
L 151.874324 236.102416 
z
" style="fill:#0000ff;"/>
   </g>
   <g id="patch_26">
    <path clip-path="url(#pd2d4ba7b03)" d="M 155.372757 239.758125 
L 158.871189 239.758125 
L 158.871189 236.408605 
L 155.372757 236.408605 
z
" style="fill:#0000ff;"/>
   </g>
   <g id="patch_27">
    <path clip-path="url(#pd2d4ba7b03)" d="M 158.871189 239.758125 
L 162.369622 239.758125 
L 162.369622 236.85397 
L 158.871189 236.85397 
z
" style="fill:#0000ff;"/>
   </g>
   <g id="patch_28">
    <path clip-path="url(#pd2d4ba7b03)" d="M 162.369622 239.758125 
L 165.868054 239.758125 
L 165.868054 236.872527 
L 162.369622 236.872527 
z
" style="fill:#0000ff;"/>
   </g>
   <g id="patch_29">
    <path clip-path="url(#pd2d4ba7b03)" d="M 165.868054 239.758125 
L 169.366487 239.758125 
L 169.366487 236.937476 
L 165.868054 236.937476 
z
" style="fill:#0000ff;"/>
   </g>
   <g id="patch_30">
    <path clip-path="url(#pd2d4ba7b03)" d="M 169.366487 239.758125 
L 172.86492 239.758125 
L 172.86492 237.299336 
L 169.366487 237.299336 
z
" style="fill:#0000ff;"/>
   </g>
   <g id="patch_31">
    <path clip-path="url(#pd2d4ba7b03)" d="M 172.86492 239.758125 
L 176.363352 239.758125 
L 176.363352 237.846764 
L 172.86492 237.846764 
z
" style="fill:#0000ff;"/>
   </g>
   <g id="patch_32">
    <path clip-path="url(#pd2d4ba7b03)" d="M 176.363352 239.758125 
L 179.861785 239.758125 
L 179.861785 238.106561 
L 176.363352 238.106561 
z
" style="fill:#0000ff;"/>
   </g>
   <g id="patch_33">
    <path clip-path="url(#pd2d4ba7b03)" d="M 179.861785 239.758125 
L 183.360217 239.758125 
L 183.360217 238.264295 
L 179.861785 238.264295 
z
" style="fill:#0000ff;"/>
   </g>
   <g id="patch_34">
    <path clip-path="url(#pd2d4ba7b03)" d="M 183.360217 239.758125 
L 186.85865 239.758125 
L 186.85865 238.282852 
L 183.360217 238.282852 
z
" style="fill:#0000ff;"/>
   </g>
   <g id="patch_35">
    <path clip-path="url(#pd2d4ba7b03)" d="M 186.85865 239.758125 
L 190.357083 239.758125 
L 190.357083 238.310687 
L 186.85865 238.310687 
z
" style="fill:#0000ff;"/>
   </g>
   <g id="patch_36">
    <path clip-path="url(#pd2d4ba7b03)" d="M 190.357083 239.758125 
L 193.855515 239.758125 
L 193.855515 238.41275 
L 190.357083 238.41275 
z
" style="fill:#0000ff;"/>
   </g>
   <g id="patch_37">
    <path clip-path="url(#pd2d4ba7b03)" d="M 193.855515 239.758125 
L 197.353948 239.758125 
L 197.353948 238.41275 
L 193.855515 238.41275 
z
" style="fill:#0000ff;"/>
   </g>
   <g id="patch_38">
    <path clip-path="url(#pd2d4ba7b03)" d="M 197.353948 239.758125 
L 200.85238 239.758125 
L 200.85238 238.570483 
L 197.353948 238.570483 
z
" style="fill:#0000ff;"/>
   </g>
   <g id="patch_39">
    <path clip-path="url(#pd2d4ba7b03)" d="M 200.85238 239.758125 
L 204.350813 239.758125 
L 204.350813 238.663268 
L 200.85238 238.663268 
z
" style="fill:#0000ff;"/>
   </g>
   <g id="patch_40">
    <path clip-path="url(#pd2d4ba7b03)" d="M 204.350813 239.758125 
L 207.849246 239.758125 
L 207.849246 238.691103 
L 204.350813 238.691103 
z
" style="fill:#0000ff;"/>
   </g>
   <g id="patch_41">
    <path clip-path="url(#pd2d4ba7b03)" d="M 207.849246 239.758125 
L 211.347678 239.758125 
L 211.347678 238.737496 
L 207.849246 238.737496 
z
" style="fill:#0000ff;"/>
   </g>
   <g id="patch_42">
    <path clip-path="url(#pd2d4ba7b03)" d="M 211.347678 239.758125 
L 214.846111 239.758125 
L 214.846111 238.774609 
L 211.347678 238.774609 
z
" style="fill:#0000ff;"/>
   </g>
   <g id="patch_43">
    <path clip-path="url(#pd2d4ba7b03)" d="M 214.846111 239.758125 
L 218.344543 239.758125 
L 218.344543 238.793166 
L 214.846111 238.793166 
z
" style="fill:#0000ff;"/>
   </g>
   <g id="patch_44">
    <path clip-path="url(#pd2d4ba7b03)" d="M 218.344543 239.758125 
L 221.842976 239.758125 
L 221.842976 238.839558 
L 218.344543 238.839558 
z
" style="fill:#0000ff;"/>
   </g>
   <g id="patch_45">
    <path clip-path="url(#pd2d4ba7b03)" d="M 221.842976 239.758125 
L 225.341409 239.758125 
L 225.341409 238.876672 
L 221.842976 238.876672 
z
" style="fill:#0000ff;"/>
   </g>
   <g id="patch_46">
    <path clip-path="url(#pd2d4ba7b03)" d="M 225.341409 239.758125 
L 228.839841 239.758125 
L 228.839841 238.904508 
L 225.341409 238.904508 
z
" style="fill:#0000ff;"/>
   </g>
   <g id="patch_47">
    <path clip-path="url(#pd2d4ba7b03)" d="M 228.839841 239.758125 
L 232.338274 239.758125 
L 232.338274 238.923065 
L 228.839841 238.923065 
z
" style="fill:#0000ff;"/>
   </g>
   <g id="patch_48">
    <path clip-path="url(#pd2d4ba7b03)" d="M 232.338274 239.758125 
L 235.836707 239.758125 
L 235.836707 238.9509 
L 232.338274 238.9509 
z
" style="fill:#0000ff;"/>
   </g>
   <g id="patch_49">
    <path clip-path="url(#pd2d4ba7b03)" d="M 235.836707 239.758125 
L 239.335139 239.758125 
L 239.335139 239.12719 
L 235.836707 239.12719 
z
" style="fill:#0000ff;"/>
   </g>
   <g id="patch_50">
    <path clip-path="url(#pd2d4ba7b03)" d="M 239.335139 239.758125 
L 242.833572 239.758125 
L 242.833572 239.145747 
L 239.335139 239.145747 
z
" style="fill:#0000ff;"/>
   </g>
   <g id="patch_51">
    <path clip-path="url(#pd2d4ba7b03)" d="M 242.833572 239.758125 
L 246.332004 239.758125 
L 246.332004 239.145747 
L 242.833572 239.145747 
z
" style="fill:#0000ff;"/>
   </g>
   <g id="patch_52">
    <path clip-path="url(#pd2d4ba7b03)" d="M 246.332004 239.758125 
L 249.830437 239.758125 
L 249.830437 239.173583 
L 246.332004 239.173583 
z
" style="fill:#0000ff;"/>
   </g>
   <g id="patch_53">
    <path clip-path="url(#pd2d4ba7b03)" d="M 249.830437 239.758125 
L 253.32887 239.758125 
L 253.32887 239.19214 
L 249.830437 239.19214 
z
" style="fill:#0000ff;"/>
   </g>
   <g id="patch_54">
    <path clip-path="url(#pd2d4ba7b03)" d="M 253.32887 239.758125 
L 256.827302 239.758125 
L 256.827302 239.24781 
L 253.32887 239.24781 
z
" style="fill:#0000ff;"/>
   </g>
   <g id="patch_55">
    <path clip-path="url(#pd2d4ba7b03)" d="M 256.827302 239.758125 
L 260.325735 239.758125 
L 260.325735 239.359152 
L 256.827302 239.359152 
z
" style="fill:#0000ff;"/>
   </g>
   <g id="patch_56">
    <path clip-path="url(#pd2d4ba7b03)" d="M 260.325735 239.758125 
L 263.824167 239.758125 
L 263.824167 239.359152 
L 260.325735 239.359152 
z
" style="fill:#0000ff;"/>
   </g>
   <g id="patch_57">
    <path clip-path="url(#pd2d4ba7b03)" d="M 263.824167 239.758125 
L 267.3226 239.758125 
L 267.3226 239.359152 
L 263.824167 239.359152 
z
" style="fill:#0000ff;"/>
   </g>
   <g id="patch_58">
    <path clip-path="url(#pd2d4ba7b03)" d="M 267.3226 239.758125 
L 270.821033 239.758125 
L 270.821033 239.36843 
L 267.3226 239.36843 
z
" style="fill:#0000ff;"/>
   </g>
   <g id="patch_59">
    <path clip-path="url(#pd2d4ba7b03)" d="M 270.821033 239.758125 
L 274.319465 239.758125 
L 274.319465 239.405544 
L 270.821033 239.405544 
z
" style="fill:#0000ff;"/>
   </g>
   <g id="patch_60">
    <path clip-path="url(#pd2d4ba7b03)" d="M 274.319465 239.758125 
L 277.817898 239.758125 
L 277.817898 239.442658 
L 274.319465 239.442658 
z
" style="fill:#0000ff;"/>
   </g>
   <g id="patch_61">
    <path clip-path="url(#pd2d4ba7b03)" d="M 277.817898 239.758125 
L 281.31633 239.758125 
L 281.31633 239.442658 
L 277.817898 239.442658 
z
" style="fill:#0000ff;"/>
   </g>
   <g id="patch_62">
    <path clip-path="url(#pd2d4ba7b03)" d="M 281.31633 239.758125 
L 284.814763 239.758125 
L 284.814763 239.451936 
L 281.31633 239.451936 
z
" style="fill:#0000ff;"/>
   </g>
   <g id="patch_63">
    <path clip-path="url(#pd2d4ba7b03)" d="M 284.814763 239.758125 
L 288.313196 239.758125 
L 288.313196 239.451936 
L 284.814763 239.451936 
z
" style="fill:#0000ff;"/>
   </g>
   <g id="patch_64">
    <path clip-path="url(#pd2d4ba7b03)" d="M 288.313196 239.758125 
L 291.811628 239.758125 
L 291.811628 239.479772 
L 288.313196 239.479772 
z
" style="fill:#0000ff;"/>
   </g>
   <g id="patch_65">
    <path clip-path="url(#pd2d4ba7b03)" d="M 291.811628 239.758125 
L 295.310061 239.758125 
L 295.310061 239.479772 
L 291.811628 239.479772 
z
" style="fill:#0000ff;"/>
   </g>
   <g id="patch_66">
    <path clip-path="url(#pd2d4ba7b03)" d="M 295.310061 239.758125 
L 298.808493 239.758125 
L 298.808493 239.507607 
L 295.310061 239.507607 
z
" style="fill:#0000ff;"/>
   </g>
   <g id="patch_67">
    <path clip-path="url(#pd2d4ba7b03)" d="M 298.808493 239.758125 
L 302.306926 239.758125 
L 302.306926 239.507607 
L 298.808493 239.507607 
z
" style="fill:#0000ff;"/>
   </g>
   <g id="patch_68">
    <path clip-path="url(#pd2d4ba7b03)" d="M 302.306926 239.758125 
L 305.805359 239.758125 
L 305.805359 239.516885 
L 302.306926 239.516885 
z
" style="fill:#0000ff;"/>
   </g>
   <g id="patch_69">
    <path clip-path="url(#pd2d4ba7b03)" d="M 305.805359 239.758125 
L 309.303791 239.758125 
L 309.303791 239.544721 
L 305.805359 239.544721 
z
" style="fill:#0000ff;"/>
   </g>
   <g id="patch_70">
    <path clip-path="url(#pd2d4ba7b03)" d="M 309.303791 239.758125 
L 312.802224 239.758125 
L 312.802224 239.581834 
L 309.303791 239.581834 
z
" style="fill:#0000ff;"/>
   </g>
   <g id="patch_71">
    <path clip-path="url(#pd2d4ba7b03)" d="M 312.802224 239.758125 
L 316.300656 239.758125 
L 316.300656 239.581834 
L 312.802224 239.581834 
z
" style="fill:#0000ff;"/>
   </g>
   <g id="patch_72">
    <path clip-path="url(#pd2d4ba7b03)" d="M 316.300656 239.758125 
L 319.799089 239.758125 
L 319.799089 239.591113 
L 316.300656 239.591113 
z
" style="fill:#0000ff;"/>
   </g>
   <g id="patch_73">
    <path clip-path="url(#pd2d4ba7b03)" d="M 319.799089 239.758125 
L 323.297522 239.758125 
L 323.297522 239.60967 
L 319.799089 239.60967 
z
" style="fill:#0000ff;"/>
   </g>
   <g id="patch_74">
    <path clip-path="url(#pd2d4ba7b03)" d="M 323.297522 239.758125 
L 326.795954 239.758125 
L 326.795954 239.60967 
L 323.297522 239.60967 
z
" style="fill:#0000ff;"/>
   </g>
   <g id="patch_75">
    <path clip-path="url(#pd2d4ba7b03)" d="M 326.795954 239.758125 
L 330.294387 239.758125 
L 330.294387 239.60967 
L 326.795954 239.60967 
z
" style="fill:#0000ff;"/>
   </g>
   <g id="patch_76">
    <path clip-path="url(#pd2d4ba7b03)" d="M 330.294387 239.758125 
L 333.792819 239.758125 
L 333.792819 239.60967 
L 330.294387 239.60967 
z
" style="fill:#0000ff;"/>
   </g>
   <g id="patch_77">
    <path clip-path="url(#pd2d4ba7b03)" d="M 333.792819 239.758125 
L 337.291252 239.758125 
L 337.291252 239.628227 
L 333.792819 239.628227 
z
" style="fill:#0000ff;"/>
   </g>
   <g id="patch_78">
    <path clip-path="url(#pd2d4ba7b03)" d="M 337.291252 239.758125 
L 340.789685 239.758125 
L 340.789685 239.628227 
L 337.291252 239.628227 
z
" style="fill:#0000ff;"/>
   </g>
   <g id="patch_79">
    <path clip-path="url(#pd2d4ba7b03)" d="M 340.789685 239.758125 
L 344.288117 239.758125 
L 344.288117 239.637505 
L 340.789685 239.637505 
z
" style="fill:#0000ff;"/>
   </g>
   <g id="patch_80">
    <path clip-path="url(#pd2d4ba7b03)" d="M 344.288117 239.758125 
L 347.78655 239.758125 
L 347.78655 239.637505 
L 344.288117 239.637505 
z
" style="fill:#0000ff;"/>
   </g>
   <g id="patch_81">
    <path clip-path="url(#pd2d4ba7b03)" d="M 347.78655 239.758125 
L 351.284982 239.758125 
L 351.284982 239.646784 
L 347.78655 239.646784 
z
" style="fill:#0000ff;"/>
   </g>
   <g id="patch_82">
    <path clip-path="url(#pd2d4ba7b03)" d="M 351.284982 239.758125 
L 354.783415 239.758125 
L 354.783415 239.646784 
L 351.284982 239.646784 
z
" style="fill:#0000ff;"/>
   </g>
   <g id="patch_83">
    <path clip-path="url(#pd2d4ba7b03)" d="M 354.783415 239.758125 
L 358.281848 239.758125 
L 358.281848 239.646784 
L 354.783415 239.646784 
z
" style="fill:#0000ff;"/>
   </g>
   <g id="patch_84">
    <path clip-path="url(#pd2d4ba7b03)" d="M 358.281848 239.758125 
L 361.78028 239.758125 
L 361.78028 239.656062 
L 358.281848 239.656062 
z
" style="fill:#0000ff;"/>
   </g>
   <g id="patch_85">
    <path clip-path="url(#pd2d4ba7b03)" d="M 361.78028 239.758125 
L 365.278713 239.758125 
L 365.278713 239.656062 
L 361.78028 239.656062 
z
" style="fill:#0000ff;"/>
   </g>
   <g id="patch_86">
    <path clip-path="url(#pd2d4ba7b03)" d="M 365.278713 239.758125 
L 368.777145 239.758125 
L 368.777145 239.656062 
L 365.278713 239.656062 
z
" style="fill:#0000ff;"/>
   </g>
   <g id="patch_87">
    <path clip-path="url(#pd2d4ba7b03)" d="M 368.777145 239.758125 
L 372.275578 239.758125 
L 372.275578 239.656062 
L 368.777145 239.656062 
z
" style="fill:#0000ff;"/>
   </g>
   <g id="patch_88">
    <path clip-path="url(#pd2d4ba7b03)" d="M 372.275578 239.758125 
L 375.774011 239.758125 
L 375.774011 239.665341 
L 372.275578 239.665341 
z
" style="fill:#0000ff;"/>
   </g>
   <g id="patch_89">
    <path clip-path="url(#pd2d4ba7b03)" d="M 375.774011 239.758125 
L 379.272443 239.758125 
L 379.272443 239.674619 
L 375.774011 239.674619 
z
" style="fill:#0000ff;"/>
   </g>
   <g id="matplotlib.axis_1">
    <g id="xtick_1">
     <g id="line2d_1">
      <defs>
       <path d="M 0 0 
L 0 3.5 
" id="m1ce4629fe5" style="stroke:#000000;stroke-width:0.8;"/>
      </defs>
      <g>
       <use style="stroke:#000000;stroke-width:0.8;" x="78.407239" xlink:href="#m1ce4629fe5" y="239.758125"/>
      </g>
     </g>
     <g id="text_1">
      <!-- tetrahydrofuran -->
      <g transform="translate(65.482746 248.724745)rotate(-285)scale(0.1 -0.1)">
       <defs>
        <path d="M 18.3125 70.21875 
L 18.3125 54.6875 
L 36.8125 54.6875 
L 36.8125 47.703125 
L 18.3125 47.703125 
L 18.3125 18.015625 
Q 18.3125 11.328125 20.140625 9.421875 
Q 21.96875 7.515625 27.59375 7.515625 
L 36.8125 7.515625 
L 36.8125 0 
L 27.59375 0 
Q 17.1875 0 13.234375 3.875 
Q 9.28125 7.765625 9.28125 18.015625 
L 9.28125 47.703125 
L 2.6875 47.703125 
L 2.6875 54.6875 
L 9.28125 54.6875 
L 9.28125 70.21875 
z
" id="DejaVuSans-116"/>
        <path d="M 56.203125 29.59375 
L 56.203125 25.203125 
L 14.890625 25.203125 
Q 15.484375 15.921875 20.484375 11.0625 
Q 25.484375 6.203125 34.421875 6.203125 
Q 39.59375 6.203125 44.453125 7.46875 
Q 49.3125 8.734375 54.109375 11.28125 
L 54.109375 2.78125 
Q 49.265625 0.734375 44.1875 -0.34375 
Q 39.109375 -1.421875 33.890625 -1.421875 
Q 20.796875 -1.421875 13.15625 6.1875 
Q 5.515625 13.8125 5.515625 26.8125 
Q 5.515625 40.234375 12.765625 48.109375 
Q 20.015625 56 32.328125 56 
Q 43.359375 56 49.78125 48.890625 
Q 56.203125 41.796875 56.203125 29.59375 
z
M 47.21875 32.234375 
Q 47.125 39.59375 43.09375 43.984375 
Q 39.0625 48.390625 32.421875 48.390625 
Q 24.90625 48.390625 20.390625 44.140625 
Q 15.875 39.890625 15.1875 32.171875 
z
" id="DejaVuSans-101"/>
        <path d="M 41.109375 46.296875 
Q 39.59375 47.171875 37.8125 47.578125 
Q 36.03125 48 33.890625 48 
Q 26.265625 48 22.1875 43.046875 
Q 18.109375 38.09375 18.109375 28.8125 
L 18.109375 0 
L 9.078125 0 
L 9.078125 54.6875 
L 18.109375 54.6875 
L 18.109375 46.1875 
Q 20.953125 51.171875 25.484375 53.578125 
Q 30.03125 56 36.53125 56 
Q 37.453125 56 38.578125 55.875 
Q 39.703125 55.765625 41.0625 55.515625 
z
" id="DejaVuSans-114"/>
        <path d="M 34.28125 27.484375 
Q 23.390625 27.484375 19.1875 25 
Q 14.984375 22.515625 14.984375 16.5 
Q 14.984375 11.71875 18.140625 8.90625 
Q 21.296875 6.109375 26.703125 6.109375 
Q 34.1875 6.109375 38.703125 11.40625 
Q 43.21875 16.703125 43.21875 25.484375 
L 43.21875 27.484375 
z
M 52.203125 31.203125 
L 52.203125 0 
L 43.21875 0 
L 43.21875 8.296875 
Q 40.140625 3.328125 35.546875 0.953125 
Q 30.953125 -1.421875 24.3125 -1.421875 
Q 15.921875 -1.421875 10.953125 3.296875 
Q 6 8.015625 6 15.921875 
Q 6 25.140625 12.171875 29.828125 
Q 18.359375 34.515625 30.609375 34.515625 
L 43.21875 34.515625 
L 43.21875 35.40625 
Q 43.21875 41.609375 39.140625 45 
Q 35.0625 48.390625 27.6875 48.390625 
Q 23 48.390625 18.546875 47.265625 
Q 14.109375 46.140625 10.015625 43.890625 
L 10.015625 52.203125 
Q 14.9375 54.109375 19.578125 55.046875 
Q 24.21875 56 28.609375 56 
Q 40.484375 56 46.34375 49.84375 
Q 52.203125 43.703125 52.203125 31.203125 
z
" id="DejaVuSans-97"/>
        <path d="M 54.890625 33.015625 
L 54.890625 0 
L 45.90625 0 
L 45.90625 32.71875 
Q 45.90625 40.484375 42.875 44.328125 
Q 39.84375 48.1875 33.796875 48.1875 
Q 26.515625 48.1875 22.3125 43.546875 
Q 18.109375 38.921875 18.109375 30.90625 
L 18.109375 0 
L 9.078125 0 
L 9.078125 75.984375 
L 18.109375 75.984375 
L 18.109375 46.1875 
Q 21.34375 51.125 25.703125 53.5625 
Q 30.078125 56 35.796875 56 
Q 45.21875 56 50.046875 50.171875 
Q 54.890625 44.34375 54.890625 33.015625 
z
" id="DejaVuSans-104"/>
        <path d="M 32.171875 -5.078125 
Q 28.375 -14.84375 24.75 -17.8125 
Q 21.140625 -20.796875 15.09375 -20.796875 
L 7.90625 -20.796875 
L 7.90625 -13.28125 
L 13.1875 -13.28125 
Q 16.890625 -13.28125 18.9375 -11.515625 
Q 21 -9.765625 23.484375 -3.21875 
L 25.09375 0.875 
L 2.984375 54.6875 
L 12.5 54.6875 
L 29.59375 11.921875 
L 46.6875 54.6875 
L 56.203125 54.6875 
z
" id="DejaVuSans-121"/>
        <path d="M 45.40625 46.390625 
L 45.40625 75.984375 
L 54.390625 75.984375 
L 54.390625 0 
L 45.40625 0 
L 45.40625 8.203125 
Q 42.578125 3.328125 38.25 0.953125 
Q 33.9375 -1.421875 27.875 -1.421875 
Q 17.96875 -1.421875 11.734375 6.484375 
Q 5.515625 14.40625 5.515625 27.296875 
Q 5.515625 40.1875 11.734375 48.09375 
Q 17.96875 56 27.875 56 
Q 33.9375 56 38.25 53.625 
Q 42.578125 51.265625 45.40625 46.390625 
z
M 14.796875 27.296875 
Q 14.796875 17.390625 18.875 11.75 
Q 22.953125 6.109375 30.078125 6.109375 
Q 37.203125 6.109375 41.296875 11.75 
Q 45.40625 17.390625 45.40625 27.296875 
Q 45.40625 37.203125 41.296875 42.84375 
Q 37.203125 48.484375 30.078125 48.484375 
Q 22.953125 48.484375 18.875 42.84375 
Q 14.796875 37.203125 14.796875 27.296875 
z
" id="DejaVuSans-100"/>
        <path d="M 30.609375 48.390625 
Q 23.390625 48.390625 19.1875 42.75 
Q 14.984375 37.109375 14.984375 27.296875 
Q 14.984375 17.484375 19.15625 11.84375 
Q 23.34375 6.203125 30.609375 6.203125 
Q 37.796875 6.203125 41.984375 11.859375 
Q 46.1875 17.53125 46.1875 27.296875 
Q 46.1875 37.015625 41.984375 42.703125 
Q 37.796875 48.390625 30.609375 48.390625 
z
M 30.609375 56 
Q 42.328125 56 49.015625 48.375 
Q 55.71875 40.765625 55.71875 27.296875 
Q 55.71875 13.875 49.015625 6.21875 
Q 42.328125 -1.421875 30.609375 -1.421875 
Q 18.84375 -1.421875 12.171875 6.21875 
Q 5.515625 13.875 5.515625 27.296875 
Q 5.515625 40.765625 12.171875 48.375 
Q 18.84375 56 30.609375 56 
z
" id="DejaVuSans-111"/>
        <path d="M 37.109375 75.984375 
L 37.109375 68.5 
L 28.515625 68.5 
Q 23.6875 68.5 21.796875 66.546875 
Q 19.921875 64.59375 19.921875 59.515625 
L 19.921875 54.6875 
L 34.71875 54.6875 
L 34.71875 47.703125 
L 19.921875 47.703125 
L 19.921875 0 
L 10.890625 0 
L 10.890625 47.703125 
L 2.296875 47.703125 
L 2.296875 54.6875 
L 10.890625 54.6875 
L 10.890625 58.5 
Q 10.890625 67.625 15.140625 71.796875 
Q 19.390625 75.984375 28.609375 75.984375 
z
" id="DejaVuSans-102"/>
        <path d="M 8.5 21.578125 
L 8.5 54.6875 
L 17.484375 54.6875 
L 17.484375 21.921875 
Q 17.484375 14.15625 20.5 10.265625 
Q 23.53125 6.390625 29.59375 6.390625 
Q 36.859375 6.390625 41.078125 11.03125 
Q 45.3125 15.671875 45.3125 23.6875 
L 45.3125 54.6875 
L 54.296875 54.6875 
L 54.296875 0 
L 45.3125 0 
L 45.3125 8.40625 
Q 42.046875 3.421875 37.71875 1 
Q 33.40625 -1.421875 27.6875 -1.421875 
Q 18.265625 -1.421875 13.375 4.4375 
Q 8.5 10.296875 8.5 21.578125 
z
M 31.109375 56 
z
" id="DejaVuSans-117"/>
        <path d="M 54.890625 33.015625 
L 54.890625 0 
L 45.90625 0 
L 45.90625 32.71875 
Q 45.90625 40.484375 42.875 44.328125 
Q 39.84375 48.1875 33.796875 48.1875 
Q 26.515625 48.1875 22.3125 43.546875 
Q 18.109375 38.921875 18.109375 30.90625 
L 18.109375 0 
L 9.078125 0 
L 9.078125 54.6875 
L 18.109375 54.6875 
L 18.109375 46.1875 
Q 21.34375 51.125 25.703125 53.5625 
Q 30.078125 56 35.796875 56 
Q 45.21875 56 50.046875 50.171875 
Q 54.890625 44.34375 54.890625 33.015625 
z
" id="DejaVuSans-110"/>
       </defs>
       <use xlink:href="#DejaVuSans-116"/>
       <use x="39.208984" xlink:href="#DejaVuSans-101"/>
       <use x="100.732422" xlink:href="#DejaVuSans-116"/>
       <use x="139.941406" xlink:href="#DejaVuSans-114"/>
       <use x="181.054688" xlink:href="#DejaVuSans-97"/>
       <use x="242.333984" xlink:href="#DejaVuSans-104"/>
       <use x="305.712891" xlink:href="#DejaVuSans-121"/>
       <use x="364.892578" xlink:href="#DejaVuSans-100"/>
       <use x="428.369141" xlink:href="#DejaVuSans-114"/>
       <use x="467.232422" xlink:href="#DejaVuSans-111"/>
       <use x="528.414062" xlink:href="#DejaVuSans-102"/>
       <use x="563.619141" xlink:href="#DejaVuSans-117"/>
       <use x="626.998047" xlink:href="#DejaVuSans-114"/>
       <use x="668.111328" xlink:href="#DejaVuSans-97"/>
       <use x="729.390625" xlink:href="#DejaVuSans-110"/>
      </g>
     </g>
    </g>
    <g id="xtick_2">
     <g id="line2d_2">
      <g>
       <use style="stroke:#000000;stroke-width:0.8;" x="81.905672" xlink:href="#m1ce4629fe5" y="239.758125"/>
      </g>
     </g>
    </g>
    <g id="xtick_3">
     <g id="line2d_3">
      <g>
       <use style="stroke:#000000;stroke-width:0.8;" x="85.404105" xlink:href="#m1ce4629fe5" y="239.758125"/>
      </g>
     </g>
    </g>
    <g id="xtick_4">
     <g id="line2d_4">
      <g>
       <use style="stroke:#000000;stroke-width:0.8;" x="88.902537" xlink:href="#m1ce4629fe5" y="239.758125"/>
      </g>
     </g>
    </g>
    <g id="xtick_5">
     <g id="line2d_5">
      <g>
       <use style="stroke:#000000;stroke-width:0.8;" x="92.40097" xlink:href="#m1ce4629fe5" y="239.758125"/>
      </g>
     </g>
    </g>
    <g id="xtick_6">
     <g id="line2d_6">
      <g>
       <use style="stroke:#000000;stroke-width:0.8;" x="95.899402" xlink:href="#m1ce4629fe5" y="239.758125"/>
      </g>
     </g>
    </g>
    <g id="xtick_7">
     <g id="line2d_7">
      <g>
       <use style="stroke:#000000;stroke-width:0.8;" x="99.397835" xlink:href="#m1ce4629fe5" y="239.758125"/>
      </g>
     </g>
    </g>
    <g id="xtick_8">
     <g id="line2d_8">
      <g>
       <use style="stroke:#000000;stroke-width:0.8;" x="102.896268" xlink:href="#m1ce4629fe5" y="239.758125"/>
      </g>
     </g>
    </g>
    <g id="xtick_9">
     <g id="line2d_9">
      <g>
       <use style="stroke:#000000;stroke-width:0.8;" x="106.3947" xlink:href="#m1ce4629fe5" y="239.758125"/>
      </g>
     </g>
    </g>
    <g id="xtick_10">
     <g id="line2d_10">
      <g>
       <use style="stroke:#000000;stroke-width:0.8;" x="109.893133" xlink:href="#m1ce4629fe5" y="239.758125"/>
      </g>
     </g>
    </g>
    <g id="xtick_11">
     <g id="line2d_11">
      <g>
       <use style="stroke:#000000;stroke-width:0.8;" x="113.391565" xlink:href="#m1ce4629fe5" y="239.758125"/>
      </g>
     </g>
     <g id="text_2">
      <!-- ethanol -->
      <g transform="translate(105.837971 248.724745)rotate(-285)scale(0.1 -0.1)">
       <defs>
        <path d="M 9.421875 75.984375 
L 18.40625 75.984375 
L 18.40625 0 
L 9.421875 0 
z
" id="DejaVuSans-108"/>
       </defs>
       <use xlink:href="#DejaVuSans-101"/>
       <use x="61.523438" xlink:href="#DejaVuSans-116"/>
       <use x="100.732422" xlink:href="#DejaVuSans-104"/>
       <use x="164.111328" xlink:href="#DejaVuSans-97"/>
       <use x="225.390625" xlink:href="#DejaVuSans-110"/>
       <use x="288.769531" xlink:href="#DejaVuSans-111"/>
       <use x="349.951172" xlink:href="#DejaVuSans-108"/>
      </g>
     </g>
    </g>
    <g id="xtick_12">
     <g id="line2d_12">
      <g>
       <use style="stroke:#000000;stroke-width:0.8;" x="116.889998" xlink:href="#m1ce4629fe5" y="239.758125"/>
      </g>
     </g>
    </g>
    <g id="xtick_13">
     <g id="line2d_13">
      <g>
       <use style="stroke:#000000;stroke-width:0.8;" x="120.388431" xlink:href="#m1ce4629fe5" y="239.758125"/>
      </g>
     </g>
    </g>
    <g id="xtick_14">
     <g id="line2d_14">
      <g>
       <use style="stroke:#000000;stroke-width:0.8;" x="123.886863" xlink:href="#m1ce4629fe5" y="239.758125"/>
      </g>
     </g>
    </g>
    <g id="xtick_15">
     <g id="line2d_15">
      <g>
       <use style="stroke:#000000;stroke-width:0.8;" x="127.385296" xlink:href="#m1ce4629fe5" y="239.758125"/>
      </g>
     </g>
    </g>
    <g id="xtick_16">
     <g id="line2d_16">
      <g>
       <use style="stroke:#000000;stroke-width:0.8;" x="130.883728" xlink:href="#m1ce4629fe5" y="239.758125"/>
      </g>
     </g>
    </g>
    <g id="xtick_17">
     <g id="line2d_17">
      <g>
       <use style="stroke:#000000;stroke-width:0.8;" x="134.382161" xlink:href="#m1ce4629fe5" y="239.758125"/>
      </g>
     </g>
    </g>
    <g id="xtick_18">
     <g id="line2d_18">
      <g>
       <use style="stroke:#000000;stroke-width:0.8;" x="137.880594" xlink:href="#m1ce4629fe5" y="239.758125"/>
      </g>
     </g>
    </g>
    <g id="xtick_19">
     <g id="line2d_19">
      <g>
       <use style="stroke:#000000;stroke-width:0.8;" x="141.379026" xlink:href="#m1ce4629fe5" y="239.758125"/>
      </g>
     </g>
    </g>
    <g id="xtick_20">
     <g id="line2d_20">
      <g>
       <use style="stroke:#000000;stroke-width:0.8;" x="144.877459" xlink:href="#m1ce4629fe5" y="239.758125"/>
      </g>
     </g>
    </g>
    <g id="xtick_21">
     <g id="line2d_21">
      <g>
       <use style="stroke:#000000;stroke-width:0.8;" x="148.375891" xlink:href="#m1ce4629fe5" y="239.758125"/>
      </g>
     </g>
     <g id="text_3">
      <!-- N,N-dimethyl acetamide -->
      <g transform="translate(129.954931 248.724745)rotate(-285)scale(0.1 -0.1)">
       <defs>
        <path d="M 9.8125 72.90625 
L 23.09375 72.90625 
L 55.421875 11.921875 
L 55.421875 72.90625 
L 64.984375 72.90625 
L 64.984375 0 
L 51.703125 0 
L 19.390625 60.984375 
L 19.390625 0 
L 9.8125 0 
z
" id="DejaVuSans-78"/>
        <path d="M 11.71875 12.40625 
L 22.015625 12.40625 
L 22.015625 4 
L 14.015625 -11.625 
L 7.71875 -11.625 
L 11.71875 4 
z
" id="DejaVuSans-44"/>
        <path d="M 4.890625 31.390625 
L 31.203125 31.390625 
L 31.203125 23.390625 
L 4.890625 23.390625 
z
" id="DejaVuSans-45"/>
        <path d="M 9.421875 54.6875 
L 18.40625 54.6875 
L 18.40625 0 
L 9.421875 0 
z
M 9.421875 75.984375 
L 18.40625 75.984375 
L 18.40625 64.59375 
L 9.421875 64.59375 
z
" id="DejaVuSans-105"/>
        <path d="M 52 44.1875 
Q 55.375 50.25 60.0625 53.125 
Q 64.75 56 71.09375 56 
Q 79.640625 56 84.28125 50.015625 
Q 88.921875 44.046875 88.921875 33.015625 
L 88.921875 0 
L 79.890625 0 
L 79.890625 32.71875 
Q 79.890625 40.578125 77.09375 44.375 
Q 74.3125 48.1875 68.609375 48.1875 
Q 61.625 48.1875 57.5625 43.546875 
Q 53.515625 38.921875 53.515625 30.90625 
L 53.515625 0 
L 44.484375 0 
L 44.484375 32.71875 
Q 44.484375 40.625 41.703125 44.40625 
Q 38.921875 48.1875 33.109375 48.1875 
Q 26.21875 48.1875 22.15625 43.53125 
Q 18.109375 38.875 18.109375 30.90625 
L 18.109375 0 
L 9.078125 0 
L 9.078125 54.6875 
L 18.109375 54.6875 
L 18.109375 46.1875 
Q 21.1875 51.21875 25.484375 53.609375 
Q 29.78125 56 35.6875 56 
Q 41.65625 56 45.828125 52.96875 
Q 50 49.953125 52 44.1875 
z
" id="DejaVuSans-109"/>
        <path id="DejaVuSans-32"/>
        <path d="M 48.78125 52.59375 
L 48.78125 44.1875 
Q 44.96875 46.296875 41.140625 47.34375 
Q 37.3125 48.390625 33.40625 48.390625 
Q 24.65625 48.390625 19.8125 42.84375 
Q 14.984375 37.3125 14.984375 27.296875 
Q 14.984375 17.28125 19.8125 11.734375 
Q 24.65625 6.203125 33.40625 6.203125 
Q 37.3125 6.203125 41.140625 7.25 
Q 44.96875 8.296875 48.78125 10.40625 
L 48.78125 2.09375 
Q 45.015625 0.34375 40.984375 -0.53125 
Q 36.96875 -1.421875 32.421875 -1.421875 
Q 20.0625 -1.421875 12.78125 6.34375 
Q 5.515625 14.109375 5.515625 27.296875 
Q 5.515625 40.671875 12.859375 48.328125 
Q 20.21875 56 33.015625 56 
Q 37.15625 56 41.109375 55.140625 
Q 45.0625 54.296875 48.78125 52.59375 
z
" id="DejaVuSans-99"/>
       </defs>
       <use xlink:href="#DejaVuSans-78"/>
       <use x="74.804688" xlink:href="#DejaVuSans-44"/>
       <use x="106.591797" xlink:href="#DejaVuSans-78"/>
       <use x="181.396484" xlink:href="#DejaVuSans-45"/>
       <use x="217.480469" xlink:href="#DejaVuSans-100"/>
       <use x="280.957031" xlink:href="#DejaVuSans-105"/>
       <use x="308.740234" xlink:href="#DejaVuSans-109"/>
       <use x="406.152344" xlink:href="#DejaVuSans-101"/>
       <use x="467.675781" xlink:href="#DejaVuSans-116"/>
       <use x="506.884766" xlink:href="#DejaVuSans-104"/>
       <use x="570.263672" xlink:href="#DejaVuSans-121"/>
       <use x="629.443359" xlink:href="#DejaVuSans-108"/>
       <use x="657.226562" xlink:href="#DejaVuSans-32"/>
       <use x="689.013672" xlink:href="#DejaVuSans-97"/>
       <use x="750.292969" xlink:href="#DejaVuSans-99"/>
       <use x="805.273438" xlink:href="#DejaVuSans-101"/>
       <use x="866.796875" xlink:href="#DejaVuSans-116"/>
       <use x="906.005859" xlink:href="#DejaVuSans-97"/>
       <use x="967.285156" xlink:href="#DejaVuSans-109"/>
       <use x="1064.697266" xlink:href="#DejaVuSans-105"/>
       <use x="1092.480469" xlink:href="#DejaVuSans-100"/>
       <use x="1155.957031" xlink:href="#DejaVuSans-101"/>
      </g>
     </g>
    </g>
    <g id="xtick_22">
     <g id="line2d_22">
      <g>
       <use style="stroke:#000000;stroke-width:0.8;" x="151.874324" xlink:href="#m1ce4629fe5" y="239.758125"/>
      </g>
     </g>
    </g>
    <g id="xtick_23">
     <g id="line2d_23">
      <g>
       <use style="stroke:#000000;stroke-width:0.8;" x="155.372757" xlink:href="#m1ce4629fe5" y="239.758125"/>
      </g>
     </g>
    </g>
    <g id="xtick_24">
     <g id="line2d_24">
      <g>
       <use style="stroke:#000000;stroke-width:0.8;" x="158.871189" xlink:href="#m1ce4629fe5" y="239.758125"/>
      </g>
     </g>
    </g>
    <g id="xtick_25">
     <g id="line2d_25">
      <g>
       <use style="stroke:#000000;stroke-width:0.8;" x="162.369622" xlink:href="#m1ce4629fe5" y="239.758125"/>
      </g>
     </g>
    </g>
    <g id="xtick_26">
     <g id="line2d_26">
      <g>
       <use style="stroke:#000000;stroke-width:0.8;" x="165.868054" xlink:href="#m1ce4629fe5" y="239.758125"/>
      </g>
     </g>
    </g>
    <g id="xtick_27">
     <g id="line2d_27">
      <g>
       <use style="stroke:#000000;stroke-width:0.8;" x="169.366487" xlink:href="#m1ce4629fe5" y="239.758125"/>
      </g>
     </g>
    </g>
    <g id="xtick_28">
     <g id="line2d_28">
      <g>
       <use style="stroke:#000000;stroke-width:0.8;" x="172.86492" xlink:href="#m1ce4629fe5" y="239.758125"/>
      </g>
     </g>
    </g>
    <g id="xtick_29">
     <g id="line2d_29">
      <g>
       <use style="stroke:#000000;stroke-width:0.8;" x="176.363352" xlink:href="#m1ce4629fe5" y="239.758125"/>
      </g>
     </g>
    </g>
    <g id="xtick_30">
     <g id="line2d_30">
      <g>
       <use style="stroke:#000000;stroke-width:0.8;" x="179.861785" xlink:href="#m1ce4629fe5" y="239.758125"/>
      </g>
     </g>
    </g>
    <g id="xtick_31">
     <g id="line2d_31">
      <g>
       <use style="stroke:#000000;stroke-width:0.8;" x="183.360217" xlink:href="#m1ce4629fe5" y="239.758125"/>
      </g>
     </g>
     <g id="text_4">
      <!-- various solvent(s) -->
      <g transform="translate(169.147897 248.724745)rotate(-285)scale(0.1 -0.1)">
       <defs>
        <path d="M 2.984375 54.6875 
L 12.5 54.6875 
L 29.59375 8.796875 
L 46.6875 54.6875 
L 56.203125 54.6875 
L 35.6875 0 
L 23.484375 0 
z
" id="DejaVuSans-118"/>
        <path d="M 44.28125 53.078125 
L 44.28125 44.578125 
Q 40.484375 46.53125 36.375 47.5 
Q 32.28125 48.484375 27.875 48.484375 
Q 21.1875 48.484375 17.84375 46.4375 
Q 14.5 44.390625 14.5 40.28125 
Q 14.5 37.15625 16.890625 35.375 
Q 19.28125 33.59375 26.515625 31.984375 
L 29.59375 31.296875 
Q 39.15625 29.25 43.1875 25.515625 
Q 47.21875 21.78125 47.21875 15.09375 
Q 47.21875 7.46875 41.1875 3.015625 
Q 35.15625 -1.421875 24.609375 -1.421875 
Q 20.21875 -1.421875 15.453125 -0.5625 
Q 10.6875 0.296875 5.421875 2 
L 5.421875 11.28125 
Q 10.40625 8.6875 15.234375 7.390625 
Q 20.0625 6.109375 24.8125 6.109375 
Q 31.15625 6.109375 34.5625 8.28125 
Q 37.984375 10.453125 37.984375 14.40625 
Q 37.984375 18.0625 35.515625 20.015625 
Q 33.0625 21.96875 24.703125 23.78125 
L 21.578125 24.515625 
Q 13.234375 26.265625 9.515625 29.90625 
Q 5.8125 33.546875 5.8125 39.890625 
Q 5.8125 47.609375 11.28125 51.796875 
Q 16.75 56 26.8125 56 
Q 31.78125 56 36.171875 55.265625 
Q 40.578125 54.546875 44.28125 53.078125 
z
" id="DejaVuSans-115"/>
        <path d="M 31 75.875 
Q 24.46875 64.65625 21.28125 53.65625 
Q 18.109375 42.671875 18.109375 31.390625 
Q 18.109375 20.125 21.3125 9.0625 
Q 24.515625 -2 31 -13.1875 
L 23.1875 -13.1875 
Q 15.875 -1.703125 12.234375 9.375 
Q 8.59375 20.453125 8.59375 31.390625 
Q 8.59375 42.28125 12.203125 53.3125 
Q 15.828125 64.359375 23.1875 75.875 
z
" id="DejaVuSans-40"/>
        <path d="M 8.015625 75.875 
L 15.828125 75.875 
Q 23.140625 64.359375 26.78125 53.3125 
Q 30.421875 42.28125 30.421875 31.390625 
Q 30.421875 20.453125 26.78125 9.375 
Q 23.140625 -1.703125 15.828125 -13.1875 
L 8.015625 -13.1875 
Q 14.5 -2 17.703125 9.0625 
Q 20.90625 20.125 20.90625 31.390625 
Q 20.90625 42.671875 17.703125 53.65625 
Q 14.5 64.65625 8.015625 75.875 
z
" id="DejaVuSans-41"/>
       </defs>
       <use xlink:href="#DejaVuSans-118"/>
       <use x="59.179688" xlink:href="#DejaVuSans-97"/>
       <use x="120.458984" xlink:href="#DejaVuSans-114"/>
       <use x="161.572266" xlink:href="#DejaVuSans-105"/>
       <use x="189.355469" xlink:href="#DejaVuSans-111"/>
       <use x="250.537109" xlink:href="#DejaVuSans-117"/>
       <use x="313.916016" xlink:href="#DejaVuSans-115"/>
       <use x="366.015625" xlink:href="#DejaVuSans-32"/>
       <use x="397.802734" xlink:href="#DejaVuSans-115"/>
       <use x="449.902344" xlink:href="#DejaVuSans-111"/>
       <use x="511.083984" xlink:href="#DejaVuSans-108"/>
       <use x="538.867188" xlink:href="#DejaVuSans-118"/>
       <use x="598.046875" xlink:href="#DejaVuSans-101"/>
       <use x="659.570312" xlink:href="#DejaVuSans-110"/>
       <use x="722.949219" xlink:href="#DejaVuSans-116"/>
       <use x="762.158203" xlink:href="#DejaVuSans-40"/>
       <use x="801.171875" xlink:href="#DejaVuSans-115"/>
       <use x="853.271484" xlink:href="#DejaVuSans-41"/>
      </g>
     </g>
    </g>
    <g id="xtick_32">
     <g id="line2d_32">
      <g>
       <use style="stroke:#000000;stroke-width:0.8;" x="186.85865" xlink:href="#m1ce4629fe5" y="239.758125"/>
      </g>
     </g>
    </g>
    <g id="xtick_33">
     <g id="line2d_33">
      <g>
       <use style="stroke:#000000;stroke-width:0.8;" x="190.357083" xlink:href="#m1ce4629fe5" y="239.758125"/>
      </g>
     </g>
    </g>
    <g id="xtick_34">
     <g id="line2d_34">
      <g>
       <use style="stroke:#000000;stroke-width:0.8;" x="193.855515" xlink:href="#m1ce4629fe5" y="239.758125"/>
      </g>
     </g>
    </g>
    <g id="xtick_35">
     <g id="line2d_35">
      <g>
       <use style="stroke:#000000;stroke-width:0.8;" x="197.353948" xlink:href="#m1ce4629fe5" y="239.758125"/>
      </g>
     </g>
    </g>
    <g id="xtick_36">
     <g id="line2d_36">
      <g>
       <use style="stroke:#000000;stroke-width:0.8;" x="200.85238" xlink:href="#m1ce4629fe5" y="239.758125"/>
      </g>
     </g>
    </g>
    <g id="xtick_37">
     <g id="line2d_37">
      <g>
       <use style="stroke:#000000;stroke-width:0.8;" x="204.350813" xlink:href="#m1ce4629fe5" y="239.758125"/>
      </g>
     </g>
    </g>
    <g id="xtick_38">
     <g id="line2d_38">
      <g>
       <use style="stroke:#000000;stroke-width:0.8;" x="207.849246" xlink:href="#m1ce4629fe5" y="239.758125"/>
      </g>
     </g>
    </g>
    <g id="xtick_39">
     <g id="line2d_39">
      <g>
       <use style="stroke:#000000;stroke-width:0.8;" x="211.347678" xlink:href="#m1ce4629fe5" y="239.758125"/>
      </g>
     </g>
    </g>
    <g id="xtick_40">
     <g id="line2d_40">
      <g>
       <use style="stroke:#000000;stroke-width:0.8;" x="214.846111" xlink:href="#m1ce4629fe5" y="239.758125"/>
      </g>
     </g>
    </g>
    <g id="xtick_41">
     <g id="line2d_41">
      <g>
       <use style="stroke:#000000;stroke-width:0.8;" x="218.344543" xlink:href="#m1ce4629fe5" y="239.758125"/>
      </g>
     </g>
     <g id="text_5">
      <!-- tert-Amyl alcohol -->
      <g transform="translate(204.588594 248.724745)rotate(-285)scale(0.1 -0.1)">
       <defs>
        <path d="M 34.1875 63.1875 
L 20.796875 26.90625 
L 47.609375 26.90625 
z
M 28.609375 72.90625 
L 39.796875 72.90625 
L 67.578125 0 
L 57.328125 0 
L 50.6875 18.703125 
L 17.828125 18.703125 
L 11.1875 0 
L 0.78125 0 
z
" id="DejaVuSans-65"/>
       </defs>
       <use xlink:href="#DejaVuSans-116"/>
       <use x="39.208984" xlink:href="#DejaVuSans-101"/>
       <use x="100.732422" xlink:href="#DejaVuSans-114"/>
       <use x="141.845703" xlink:href="#DejaVuSans-116"/>
       <use x="181.054688" xlink:href="#DejaVuSans-45"/>
       <use x="214.888672" xlink:href="#DejaVuSans-65"/>
       <use x="283.296875" xlink:href="#DejaVuSans-109"/>
       <use x="380.708984" xlink:href="#DejaVuSans-121"/>
       <use x="439.888672" xlink:href="#DejaVuSans-108"/>
       <use x="467.671875" xlink:href="#DejaVuSans-32"/>
       <use x="499.458984" xlink:href="#DejaVuSans-97"/>
       <use x="560.738281" xlink:href="#DejaVuSans-108"/>
       <use x="588.521484" xlink:href="#DejaVuSans-99"/>
       <use x="643.501953" xlink:href="#DejaVuSans-111"/>
       <use x="704.683594" xlink:href="#DejaVuSans-104"/>
       <use x="768.0625" xlink:href="#DejaVuSans-111"/>
       <use x="829.244141" xlink:href="#DejaVuSans-108"/>
      </g>
     </g>
    </g>
    <g id="xtick_42">
     <g id="line2d_42">
      <g>
       <use style="stroke:#000000;stroke-width:0.8;" x="221.842976" xlink:href="#m1ce4629fe5" y="239.758125"/>
      </g>
     </g>
    </g>
    <g id="xtick_43">
     <g id="line2d_43">
      <g>
       <use style="stroke:#000000;stroke-width:0.8;" x="225.341409" xlink:href="#m1ce4629fe5" y="239.758125"/>
      </g>
     </g>
    </g>
    <g id="xtick_44">
     <g id="line2d_44">
      <g>
       <use style="stroke:#000000;stroke-width:0.8;" x="228.839841" xlink:href="#m1ce4629fe5" y="239.758125"/>
      </g>
     </g>
    </g>
    <g id="xtick_45">
     <g id="line2d_45">
      <g>
       <use style="stroke:#000000;stroke-width:0.8;" x="232.338274" xlink:href="#m1ce4629fe5" y="239.758125"/>
      </g>
     </g>
    </g>
    <g id="xtick_46">
     <g id="line2d_46">
      <g>
       <use style="stroke:#000000;stroke-width:0.8;" x="235.836707" xlink:href="#m1ce4629fe5" y="239.758125"/>
      </g>
     </g>
    </g>
    <g id="xtick_47">
     <g id="line2d_47">
      <g>
       <use style="stroke:#000000;stroke-width:0.8;" x="239.335139" xlink:href="#m1ce4629fe5" y="239.758125"/>
      </g>
     </g>
    </g>
    <g id="xtick_48">
     <g id="line2d_48">
      <g>
       <use style="stroke:#000000;stroke-width:0.8;" x="242.833572" xlink:href="#m1ce4629fe5" y="239.758125"/>
      </g>
     </g>
    </g>
    <g id="xtick_49">
     <g id="line2d_49">
      <g>
       <use style="stroke:#000000;stroke-width:0.8;" x="246.332004" xlink:href="#m1ce4629fe5" y="239.758125"/>
      </g>
     </g>
    </g>
    <g id="xtick_50">
     <g id="line2d_50">
      <g>
       <use style="stroke:#000000;stroke-width:0.8;" x="249.830437" xlink:href="#m1ce4629fe5" y="239.758125"/>
      </g>
     </g>
    </g>
    <g id="xtick_51">
     <g id="line2d_51">
      <g>
       <use style="stroke:#000000;stroke-width:0.8;" x="253.32887" xlink:href="#m1ce4629fe5" y="239.758125"/>
      </g>
     </g>
     <g id="text_6">
      <!-- para-xylene -->
      <g transform="translate(242.952935 248.724745)rotate(-285)scale(0.1 -0.1)">
       <defs>
        <path d="M 18.109375 8.203125 
L 18.109375 -20.796875 
L 9.078125 -20.796875 
L 9.078125 54.6875 
L 18.109375 54.6875 
L 18.109375 46.390625 
Q 20.953125 51.265625 25.265625 53.625 
Q 29.59375 56 35.59375 56 
Q 45.5625 56 51.78125 48.09375 
Q 58.015625 40.1875 58.015625 27.296875 
Q 58.015625 14.40625 51.78125 6.484375 
Q 45.5625 -1.421875 35.59375 -1.421875 
Q 29.59375 -1.421875 25.265625 0.953125 
Q 20.953125 3.328125 18.109375 8.203125 
z
M 48.6875 27.296875 
Q 48.6875 37.203125 44.609375 42.84375 
Q 40.53125 48.484375 33.40625 48.484375 
Q 26.265625 48.484375 22.1875 42.84375 
Q 18.109375 37.203125 18.109375 27.296875 
Q 18.109375 17.390625 22.1875 11.75 
Q 26.265625 6.109375 33.40625 6.109375 
Q 40.53125 6.109375 44.609375 11.75 
Q 48.6875 17.390625 48.6875 27.296875 
z
" id="DejaVuSans-112"/>
        <path d="M 54.890625 54.6875 
L 35.109375 28.078125 
L 55.90625 0 
L 45.3125 0 
L 29.390625 21.484375 
L 13.484375 0 
L 2.875 0 
L 24.125 28.609375 
L 4.6875 54.6875 
L 15.28125 54.6875 
L 29.78125 35.203125 
L 44.28125 54.6875 
z
" id="DejaVuSans-120"/>
       </defs>
       <use xlink:href="#DejaVuSans-112"/>
       <use x="63.476562" xlink:href="#DejaVuSans-97"/>
       <use x="124.755859" xlink:href="#DejaVuSans-114"/>
       <use x="165.869141" xlink:href="#DejaVuSans-97"/>
       <use x="227.148438" xlink:href="#DejaVuSans-45"/>
       <use x="263.232422" xlink:href="#DejaVuSans-120"/>
       <use x="322.412109" xlink:href="#DejaVuSans-121"/>
       <use x="381.591797" xlink:href="#DejaVuSans-108"/>
       <use x="409.375" xlink:href="#DejaVuSans-101"/>
       <use x="470.898438" xlink:href="#DejaVuSans-110"/>
       <use x="534.277344" xlink:href="#DejaVuSans-101"/>
      </g>
     </g>
    </g>
    <g id="xtick_52">
     <g id="line2d_52">
      <g>
       <use style="stroke:#000000;stroke-width:0.8;" x="256.827302" xlink:href="#m1ce4629fe5" y="239.758125"/>
      </g>
     </g>
    </g>
    <g id="xtick_53">
     <g id="line2d_53">
      <g>
       <use style="stroke:#000000;stroke-width:0.8;" x="260.325735" xlink:href="#m1ce4629fe5" y="239.758125"/>
      </g>
     </g>
    </g>
    <g id="xtick_54">
     <g id="line2d_54">
      <g>
       <use style="stroke:#000000;stroke-width:0.8;" x="263.824167" xlink:href="#m1ce4629fe5" y="239.758125"/>
      </g>
     </g>
    </g>
    <g id="xtick_55">
     <g id="line2d_55">
      <g>
       <use style="stroke:#000000;stroke-width:0.8;" x="267.3226" xlink:href="#m1ce4629fe5" y="239.758125"/>
      </g>
     </g>
    </g>
    <g id="xtick_56">
     <g id="line2d_56">
      <g>
       <use style="stroke:#000000;stroke-width:0.8;" x="270.821033" xlink:href="#m1ce4629fe5" y="239.758125"/>
      </g>
     </g>
    </g>
    <g id="xtick_57">
     <g id="line2d_57">
      <g>
       <use style="stroke:#000000;stroke-width:0.8;" x="274.319465" xlink:href="#m1ce4629fe5" y="239.758125"/>
      </g>
     </g>
    </g>
    <g id="xtick_58">
     <g id="line2d_58">
      <g>
       <use style="stroke:#000000;stroke-width:0.8;" x="277.817898" xlink:href="#m1ce4629fe5" y="239.758125"/>
      </g>
     </g>
    </g>
    <g id="xtick_59">
     <g id="line2d_59">
      <g>
       <use style="stroke:#000000;stroke-width:0.8;" x="281.31633" xlink:href="#m1ce4629fe5" y="239.758125"/>
      </g>
     </g>
    </g>
    <g id="xtick_60">
     <g id="line2d_60">
      <g>
       <use style="stroke:#000000;stroke-width:0.8;" x="284.814763" xlink:href="#m1ce4629fe5" y="239.758125"/>
      </g>
     </g>
    </g>
    <g id="xtick_61">
     <g id="line2d_61">
      <g>
       <use style="stroke:#000000;stroke-width:0.8;" x="288.313196" xlink:href="#m1ce4629fe5" y="239.758125"/>
      </g>
     </g>
     <g id="text_7">
      <!-- di-isopropyl ether -->
      <g transform="translate(274.247876 248.724745)rotate(-285)scale(0.1 -0.1)">
       <use xlink:href="#DejaVuSans-100"/>
       <use x="63.476562" xlink:href="#DejaVuSans-105"/>
       <use x="91.259766" xlink:href="#DejaVuSans-45"/>
       <use x="127.34375" xlink:href="#DejaVuSans-105"/>
       <use x="155.126953" xlink:href="#DejaVuSans-115"/>
       <use x="207.226562" xlink:href="#DejaVuSans-111"/>
       <use x="268.408203" xlink:href="#DejaVuSans-112"/>
       <use x="331.884766" xlink:href="#DejaVuSans-114"/>
       <use x="370.748047" xlink:href="#DejaVuSans-111"/>
       <use x="431.929688" xlink:href="#DejaVuSans-112"/>
       <use x="495.40625" xlink:href="#DejaVuSans-121"/>
       <use x="554.585938" xlink:href="#DejaVuSans-108"/>
       <use x="582.369141" xlink:href="#DejaVuSans-32"/>
       <use x="614.15625" xlink:href="#DejaVuSans-101"/>
       <use x="675.679688" xlink:href="#DejaVuSans-116"/>
       <use x="714.888672" xlink:href="#DejaVuSans-104"/>
       <use x="778.267578" xlink:href="#DejaVuSans-101"/>
       <use x="839.791016" xlink:href="#DejaVuSans-114"/>
      </g>
     </g>
    </g>
    <g id="xtick_62">
     <g id="line2d_62">
      <g>
       <use style="stroke:#000000;stroke-width:0.8;" x="291.811628" xlink:href="#m1ce4629fe5" y="239.758125"/>
      </g>
     </g>
    </g>
    <g id="xtick_63">
     <g id="line2d_63">
      <g>
       <use style="stroke:#000000;stroke-width:0.8;" x="295.310061" xlink:href="#m1ce4629fe5" y="239.758125"/>
      </g>
     </g>
    </g>
    <g id="xtick_64">
     <g id="line2d_64">
      <g>
       <use style="stroke:#000000;stroke-width:0.8;" x="298.808493" xlink:href="#m1ce4629fe5" y="239.758125"/>
      </g>
     </g>
    </g>
    <g id="xtick_65">
     <g id="line2d_65">
      <g>
       <use style="stroke:#000000;stroke-width:0.8;" x="302.306926" xlink:href="#m1ce4629fe5" y="239.758125"/>
      </g>
     </g>
    </g>
    <g id="xtick_66">
     <g id="line2d_66">
      <g>
       <use style="stroke:#000000;stroke-width:0.8;" x="305.805359" xlink:href="#m1ce4629fe5" y="239.758125"/>
      </g>
     </g>
    </g>
    <g id="xtick_67">
     <g id="line2d_67">
      <g>
       <use style="stroke:#000000;stroke-width:0.8;" x="309.303791" xlink:href="#m1ce4629fe5" y="239.758125"/>
      </g>
     </g>
    </g>
    <g id="xtick_68">
     <g id="line2d_68">
      <g>
       <use style="stroke:#000000;stroke-width:0.8;" x="312.802224" xlink:href="#m1ce4629fe5" y="239.758125"/>
      </g>
     </g>
    </g>
    <g id="xtick_69">
     <g id="line2d_69">
      <g>
       <use style="stroke:#000000;stroke-width:0.8;" x="316.300656" xlink:href="#m1ce4629fe5" y="239.758125"/>
      </g>
     </g>
    </g>
    <g id="xtick_70">
     <g id="line2d_70">
      <g>
       <use style="stroke:#000000;stroke-width:0.8;" x="319.799089" xlink:href="#m1ce4629fe5" y="239.758125"/>
      </g>
     </g>
    </g>
    <g id="xtick_71">
     <g id="line2d_71">
      <g>
       <use style="stroke:#000000;stroke-width:0.8;" x="323.297522" xlink:href="#m1ce4629fe5" y="239.758125"/>
      </g>
     </g>
     <g id="text_8">
      <!-- 1,3,4-trimethylimidazolidin-2-one -->
      <g transform="translate(298.989034 248.724745)rotate(-285)scale(0.1 -0.1)">
       <defs>
        <path d="M 12.40625 8.296875 
L 28.515625 8.296875 
L 28.515625 63.921875 
L 10.984375 60.40625 
L 10.984375 69.390625 
L 28.421875 72.90625 
L 38.28125 72.90625 
L 38.28125 8.296875 
L 54.390625 8.296875 
L 54.390625 0 
L 12.40625 0 
z
" id="DejaVuSans-49"/>
        <path d="M 40.578125 39.3125 
Q 47.65625 37.796875 51.625 33 
Q 55.609375 28.21875 55.609375 21.1875 
Q 55.609375 10.40625 48.1875 4.484375 
Q 40.765625 -1.421875 27.09375 -1.421875 
Q 22.515625 -1.421875 17.65625 -0.515625 
Q 12.796875 0.390625 7.625 2.203125 
L 7.625 11.71875 
Q 11.71875 9.328125 16.59375 8.109375 
Q 21.484375 6.890625 26.8125 6.890625 
Q 36.078125 6.890625 40.9375 10.546875 
Q 45.796875 14.203125 45.796875 21.1875 
Q 45.796875 27.640625 41.28125 31.265625 
Q 36.765625 34.90625 28.71875 34.90625 
L 20.21875 34.90625 
L 20.21875 43.015625 
L 29.109375 43.015625 
Q 36.375 43.015625 40.234375 45.921875 
Q 44.09375 48.828125 44.09375 54.296875 
Q 44.09375 59.90625 40.109375 62.90625 
Q 36.140625 65.921875 28.71875 65.921875 
Q 24.65625 65.921875 20.015625 65.03125 
Q 15.375 64.15625 9.8125 62.3125 
L 9.8125 71.09375 
Q 15.4375 72.65625 20.34375 73.4375 
Q 25.25 74.21875 29.59375 74.21875 
Q 40.828125 74.21875 47.359375 69.109375 
Q 53.90625 64.015625 53.90625 55.328125 
Q 53.90625 49.265625 50.4375 45.09375 
Q 46.96875 40.921875 40.578125 39.3125 
z
" id="DejaVuSans-51"/>
        <path d="M 37.796875 64.3125 
L 12.890625 25.390625 
L 37.796875 25.390625 
z
M 35.203125 72.90625 
L 47.609375 72.90625 
L 47.609375 25.390625 
L 58.015625 25.390625 
L 58.015625 17.1875 
L 47.609375 17.1875 
L 47.609375 0 
L 37.796875 0 
L 37.796875 17.1875 
L 4.890625 17.1875 
L 4.890625 26.703125 
z
" id="DejaVuSans-52"/>
        <path d="M 5.515625 54.6875 
L 48.1875 54.6875 
L 48.1875 46.484375 
L 14.40625 7.171875 
L 48.1875 7.171875 
L 48.1875 0 
L 4.296875 0 
L 4.296875 8.203125 
L 38.09375 47.515625 
L 5.515625 47.515625 
z
" id="DejaVuSans-122"/>
        <path d="M 19.1875 8.296875 
L 53.609375 8.296875 
L 53.609375 0 
L 7.328125 0 
L 7.328125 8.296875 
Q 12.9375 14.109375 22.625 23.890625 
Q 32.328125 33.6875 34.8125 36.53125 
Q 39.546875 41.84375 41.421875 45.53125 
Q 43.3125 49.21875 43.3125 52.78125 
Q 43.3125 58.59375 39.234375 62.25 
Q 35.15625 65.921875 28.609375 65.921875 
Q 23.96875 65.921875 18.8125 64.3125 
Q 13.671875 62.703125 7.8125 59.421875 
L 7.8125 69.390625 
Q 13.765625 71.78125 18.9375 73 
Q 24.125 74.21875 28.421875 74.21875 
Q 39.75 74.21875 46.484375 68.546875 
Q 53.21875 62.890625 53.21875 53.421875 
Q 53.21875 48.921875 51.53125 44.890625 
Q 49.859375 40.875 45.40625 35.40625 
Q 44.1875 33.984375 37.640625 27.21875 
Q 31.109375 20.453125 19.1875 8.296875 
z
" id="DejaVuSans-50"/>
       </defs>
       <use xlink:href="#DejaVuSans-49"/>
       <use x="63.623047" xlink:href="#DejaVuSans-44"/>
       <use x="95.410156" xlink:href="#DejaVuSans-51"/>
       <use x="159.033203" xlink:href="#DejaVuSans-44"/>
       <use x="190.820312" xlink:href="#DejaVuSans-52"/>
       <use x="254.443359" xlink:href="#DejaVuSans-45"/>
       <use x="290.527344" xlink:href="#DejaVuSans-116"/>
       <use x="329.736328" xlink:href="#DejaVuSans-114"/>
       <use x="370.849609" xlink:href="#DejaVuSans-105"/>
       <use x="398.632812" xlink:href="#DejaVuSans-109"/>
       <use x="496.044922" xlink:href="#DejaVuSans-101"/>
       <use x="557.568359" xlink:href="#DejaVuSans-116"/>
       <use x="596.777344" xlink:href="#DejaVuSans-104"/>
       <use x="660.15625" xlink:href="#DejaVuSans-121"/>
       <use x="719.335938" xlink:href="#DejaVuSans-108"/>
       <use x="747.119141" xlink:href="#DejaVuSans-105"/>
       <use x="774.902344" xlink:href="#DejaVuSans-109"/>
       <use x="872.314453" xlink:href="#DejaVuSans-105"/>
       <use x="900.097656" xlink:href="#DejaVuSans-100"/>
       <use x="963.574219" xlink:href="#DejaVuSans-97"/>
       <use x="1024.853516" xlink:href="#DejaVuSans-122"/>
       <use x="1077.34375" xlink:href="#DejaVuSans-111"/>
       <use x="1138.525391" xlink:href="#DejaVuSans-108"/>
       <use x="1166.308594" xlink:href="#DejaVuSans-105"/>
       <use x="1194.091797" xlink:href="#DejaVuSans-100"/>
       <use x="1257.568359" xlink:href="#DejaVuSans-105"/>
       <use x="1285.351562" xlink:href="#DejaVuSans-110"/>
       <use x="1348.730469" xlink:href="#DejaVuSans-45"/>
       <use x="1384.814453" xlink:href="#DejaVuSans-50"/>
       <use x="1448.4375" xlink:href="#DejaVuSans-45"/>
       <use x="1486.396484" xlink:href="#DejaVuSans-111"/>
       <use x="1547.578125" xlink:href="#DejaVuSans-110"/>
       <use x="1610.957031" xlink:href="#DejaVuSans-101"/>
      </g>
     </g>
    </g>
    <g id="xtick_72">
     <g id="line2d_72">
      <g>
       <use style="stroke:#000000;stroke-width:0.8;" x="326.795954" xlink:href="#m1ce4629fe5" y="239.758125"/>
      </g>
     </g>
    </g>
    <g id="xtick_73">
     <g id="line2d_73">
      <g>
       <use style="stroke:#000000;stroke-width:0.8;" x="330.294387" xlink:href="#m1ce4629fe5" y="239.758125"/>
      </g>
     </g>
    </g>
    <g id="xtick_74">
     <g id="line2d_74">
      <g>
       <use style="stroke:#000000;stroke-width:0.8;" x="333.792819" xlink:href="#m1ce4629fe5" y="239.758125"/>
      </g>
     </g>
    </g>
    <g id="xtick_75">
     <g id="line2d_75">
      <g>
       <use style="stroke:#000000;stroke-width:0.8;" x="337.291252" xlink:href="#m1ce4629fe5" y="239.758125"/>
      </g>
     </g>
    </g>
    <g id="xtick_76">
     <g id="line2d_76">
      <g>
       <use style="stroke:#000000;stroke-width:0.8;" x="340.789685" xlink:href="#m1ce4629fe5" y="239.758125"/>
      </g>
     </g>
    </g>
    <g id="xtick_77">
     <g id="line2d_77">
      <g>
       <use style="stroke:#000000;stroke-width:0.8;" x="344.288117" xlink:href="#m1ce4629fe5" y="239.758125"/>
      </g>
     </g>
    </g>
    <g id="xtick_78">
     <g id="line2d_78">
      <g>
       <use style="stroke:#000000;stroke-width:0.8;" x="347.78655" xlink:href="#m1ce4629fe5" y="239.758125"/>
      </g>
     </g>
    </g>
    <g id="xtick_79">
     <g id="line2d_79">
      <g>
       <use style="stroke:#000000;stroke-width:0.8;" x="351.284982" xlink:href="#m1ce4629fe5" y="239.758125"/>
      </g>
     </g>
    </g>
    <g id="xtick_80">
     <g id="line2d_80">
      <g>
       <use style="stroke:#000000;stroke-width:0.8;" x="354.783415" xlink:href="#m1ce4629fe5" y="239.758125"/>
      </g>
     </g>
    </g>
    <g id="xtick_81">
     <g id="line2d_81">
      <g>
       <use style="stroke:#000000;stroke-width:0.8;" x="358.281848" xlink:href="#m1ce4629fe5" y="239.758125"/>
      </g>
     </g>
     <g id="text_9">
      <!-- monoethylene glycol diethyl ether -->
      <g transform="translate(333.364326 248.724745)rotate(-285)scale(0.1 -0.1)">
       <defs>
        <path d="M 45.40625 27.984375 
Q 45.40625 37.75 41.375 43.109375 
Q 37.359375 48.484375 30.078125 48.484375 
Q 22.859375 48.484375 18.828125 43.109375 
Q 14.796875 37.75 14.796875 27.984375 
Q 14.796875 18.265625 18.828125 12.890625 
Q 22.859375 7.515625 30.078125 7.515625 
Q 37.359375 7.515625 41.375 12.890625 
Q 45.40625 18.265625 45.40625 27.984375 
z
M 54.390625 6.78125 
Q 54.390625 -7.171875 48.1875 -13.984375 
Q 42 -20.796875 29.203125 -20.796875 
Q 24.46875 -20.796875 20.265625 -20.09375 
Q 16.0625 -19.390625 12.109375 -17.921875 
L 12.109375 -9.1875 
Q 16.0625 -11.328125 19.921875 -12.34375 
Q 23.78125 -13.375 27.78125 -13.375 
Q 36.625 -13.375 41.015625 -8.765625 
Q 45.40625 -4.15625 45.40625 5.171875 
L 45.40625 9.625 
Q 42.625 4.78125 38.28125 2.390625 
Q 33.9375 0 27.875 0 
Q 17.828125 0 11.671875 7.65625 
Q 5.515625 15.328125 5.515625 27.984375 
Q 5.515625 40.671875 11.671875 48.328125 
Q 17.828125 56 27.875 56 
Q 33.9375 56 38.28125 53.609375 
Q 42.625 51.21875 45.40625 46.390625 
L 45.40625 54.6875 
L 54.390625 54.6875 
z
" id="DejaVuSans-103"/>
       </defs>
       <use xlink:href="#DejaVuSans-109"/>
       <use x="97.412109" xlink:href="#DejaVuSans-111"/>
       <use x="158.59375" xlink:href="#DejaVuSans-110"/>
       <use x="221.972656" xlink:href="#DejaVuSans-111"/>
       <use x="283.154297" xlink:href="#DejaVuSans-101"/>
       <use x="344.677734" xlink:href="#DejaVuSans-116"/>
       <use x="383.886719" xlink:href="#DejaVuSans-104"/>
       <use x="447.265625" xlink:href="#DejaVuSans-121"/>
       <use x="506.445312" xlink:href="#DejaVuSans-108"/>
       <use x="534.228516" xlink:href="#DejaVuSans-101"/>
       <use x="595.751953" xlink:href="#DejaVuSans-110"/>
       <use x="659.130859" xlink:href="#DejaVuSans-101"/>
       <use x="720.654297" xlink:href="#DejaVuSans-32"/>
       <use x="752.441406" xlink:href="#DejaVuSans-103"/>
       <use x="815.917969" xlink:href="#DejaVuSans-108"/>
       <use x="843.701172" xlink:href="#DejaVuSans-121"/>
       <use x="902.880859" xlink:href="#DejaVuSans-99"/>
       <use x="957.861328" xlink:href="#DejaVuSans-111"/>
       <use x="1019.042969" xlink:href="#DejaVuSans-108"/>
       <use x="1046.826172" xlink:href="#DejaVuSans-32"/>
       <use x="1078.613281" xlink:href="#DejaVuSans-100"/>
       <use x="1142.089844" xlink:href="#DejaVuSans-105"/>
       <use x="1169.873047" xlink:href="#DejaVuSans-101"/>
       <use x="1231.396484" xlink:href="#DejaVuSans-116"/>
       <use x="1270.605469" xlink:href="#DejaVuSans-104"/>
       <use x="1333.984375" xlink:href="#DejaVuSans-121"/>
       <use x="1393.164062" xlink:href="#DejaVuSans-108"/>
       <use x="1420.947266" xlink:href="#DejaVuSans-32"/>
       <use x="1452.734375" xlink:href="#DejaVuSans-101"/>
       <use x="1514.257812" xlink:href="#DejaVuSans-116"/>
       <use x="1553.466797" xlink:href="#DejaVuSans-104"/>
       <use x="1616.845703" xlink:href="#DejaVuSans-101"/>
       <use x="1678.369141" xlink:href="#DejaVuSans-114"/>
      </g>
     </g>
    </g>
    <g id="xtick_82">
     <g id="line2d_82">
      <g>
       <use style="stroke:#000000;stroke-width:0.8;" x="361.78028" xlink:href="#m1ce4629fe5" y="239.758125"/>
      </g>
     </g>
    </g>
    <g id="xtick_83">
     <g id="line2d_83">
      <g>
       <use style="stroke:#000000;stroke-width:0.8;" x="365.278713" xlink:href="#m1ce4629fe5" y="239.758125"/>
      </g>
     </g>
    </g>
    <g id="xtick_84">
     <g id="line2d_84">
      <g>
       <use style="stroke:#000000;stroke-width:0.8;" x="368.777145" xlink:href="#m1ce4629fe5" y="239.758125"/>
      </g>
     </g>
    </g>
    <g id="xtick_85">
     <g id="line2d_85">
      <g>
       <use style="stroke:#000000;stroke-width:0.8;" x="372.275578" xlink:href="#m1ce4629fe5" y="239.758125"/>
      </g>
     </g>
    </g>
    <g id="xtick_86">
     <g id="line2d_86">
      <g>
       <use style="stroke:#000000;stroke-width:0.8;" x="375.774011" xlink:href="#m1ce4629fe5" y="239.758125"/>
      </g>
     </g>
    </g>
    <g id="xtick_87">
     <g id="line2d_87">
      <g>
       <use style="stroke:#000000;stroke-width:0.8;" x="379.272443" xlink:href="#m1ce4629fe5" y="239.758125"/>
      </g>
     </g>
    </g>
    <g id="text_10">
     <!-- class name -->
     <g transform="translate(198.910156 426.953901)scale(0.1 -0.1)">
      <use xlink:href="#DejaVuSans-99"/>
      <use x="54.980469" xlink:href="#DejaVuSans-108"/>
      <use x="82.763672" xlink:href="#DejaVuSans-97"/>
      <use x="144.042969" xlink:href="#DejaVuSans-115"/>
      <use x="196.142578" xlink:href="#DejaVuSans-115"/>
      <use x="248.242188" xlink:href="#DejaVuSans-32"/>
      <use x="280.029297" xlink:href="#DejaVuSans-110"/>
      <use x="343.408203" xlink:href="#DejaVuSans-97"/>
      <use x="404.6875" xlink:href="#DejaVuSans-109"/>
      <use x="502.099609" xlink:href="#DejaVuSans-101"/>
     </g>
    </g>
   </g>
   <g id="matplotlib.axis_2">
    <g id="ytick_1">
     <g id="line2d_88">
      <defs>
       <path d="M 0 0 
L -3.5 0 
" id="meffba180f4" style="stroke:#000000;stroke-width:0.8;"/>
      </defs>
      <g>
       <use style="stroke:#000000;stroke-width:0.8;" x="59.690625" xlink:href="#meffba180f4" y="239.758125"/>
      </g>
     </g>
     <g id="text_11">
      <!-- 0 -->
      <g transform="translate(46.328125 243.557344)scale(0.1 -0.1)">
       <defs>
        <path d="M 31.78125 66.40625 
Q 24.171875 66.40625 20.328125 58.90625 
Q 16.5 51.421875 16.5 36.375 
Q 16.5 21.390625 20.328125 13.890625 
Q 24.171875 6.390625 31.78125 6.390625 
Q 39.453125 6.390625 43.28125 13.890625 
Q 47.125 21.390625 47.125 36.375 
Q 47.125 51.421875 43.28125 58.90625 
Q 39.453125 66.40625 31.78125 66.40625 
z
M 31.78125 74.21875 
Q 44.046875 74.21875 50.515625 64.515625 
Q 56.984375 54.828125 56.984375 36.375 
Q 56.984375 17.96875 50.515625 8.265625 
Q 44.046875 -1.421875 31.78125 -1.421875 
Q 19.53125 -1.421875 13.0625 8.265625 
Q 6.59375 17.96875 6.59375 36.375 
Q 6.59375 54.828125 13.0625 64.515625 
Q 19.53125 74.21875 31.78125 74.21875 
z
" id="DejaVuSans-48"/>
       </defs>
       <use xlink:href="#DejaVuSans-48"/>
      </g>
     </g>
    </g>
    <g id="ytick_2">
     <g id="line2d_89">
      <g>
       <use style="stroke:#000000;stroke-width:0.8;" x="59.690625" xlink:href="#meffba180f4" y="193.365878"/>
      </g>
     </g>
     <g id="text_12">
      <!-- 5000 -->
      <g transform="translate(27.240625 197.165096)scale(0.1 -0.1)">
       <defs>
        <path d="M 10.796875 72.90625 
L 49.515625 72.90625 
L 49.515625 64.59375 
L 19.828125 64.59375 
L 19.828125 46.734375 
Q 21.96875 47.46875 24.109375 47.828125 
Q 26.265625 48.1875 28.421875 48.1875 
Q 40.625 48.1875 47.75 41.5 
Q 54.890625 34.8125 54.890625 23.390625 
Q 54.890625 11.625 47.5625 5.09375 
Q 40.234375 -1.421875 26.90625 -1.421875 
Q 22.3125 -1.421875 17.546875 -0.640625 
Q 12.796875 0.140625 7.71875 1.703125 
L 7.71875 11.625 
Q 12.109375 9.234375 16.796875 8.0625 
Q 21.484375 6.890625 26.703125 6.890625 
Q 35.15625 6.890625 40.078125 11.328125 
Q 45.015625 15.765625 45.015625 23.390625 
Q 45.015625 31 40.078125 35.4375 
Q 35.15625 39.890625 26.703125 39.890625 
Q 22.75 39.890625 18.8125 39.015625 
Q 14.890625 38.140625 10.796875 36.28125 
z
" id="DejaVuSans-53"/>
       </defs>
       <use xlink:href="#DejaVuSans-53"/>
       <use x="63.623047" xlink:href="#DejaVuSans-48"/>
       <use x="127.246094" xlink:href="#DejaVuSans-48"/>
       <use x="190.869141" xlink:href="#DejaVuSans-48"/>
      </g>
     </g>
    </g>
    <g id="ytick_3">
     <g id="line2d_90">
      <g>
       <use style="stroke:#000000;stroke-width:0.8;" x="59.690625" xlink:href="#meffba180f4" y="146.97363"/>
      </g>
     </g>
     <g id="text_13">
      <!-- 10000 -->
      <g transform="translate(20.878125 150.772849)scale(0.1 -0.1)">
       <use xlink:href="#DejaVuSans-49"/>
       <use x="63.623047" xlink:href="#DejaVuSans-48"/>
       <use x="127.246094" xlink:href="#DejaVuSans-48"/>
       <use x="190.869141" xlink:href="#DejaVuSans-48"/>
       <use x="254.492188" xlink:href="#DejaVuSans-48"/>
      </g>
     </g>
    </g>
    <g id="ytick_4">
     <g id="line2d_91">
      <g>
       <use style="stroke:#000000;stroke-width:0.8;" x="59.690625" xlink:href="#meffba180f4" y="100.581383"/>
      </g>
     </g>
     <g id="text_14">
      <!-- 15000 -->
      <g transform="translate(20.878125 104.380601)scale(0.1 -0.1)">
       <use xlink:href="#DejaVuSans-49"/>
       <use x="63.623047" xlink:href="#DejaVuSans-53"/>
       <use x="127.246094" xlink:href="#DejaVuSans-48"/>
       <use x="190.869141" xlink:href="#DejaVuSans-48"/>
       <use x="254.492188" xlink:href="#DejaVuSans-48"/>
      </g>
     </g>
    </g>
    <g id="ytick_5">
     <g id="line2d_92">
      <g>
       <use style="stroke:#000000;stroke-width:0.8;" x="59.690625" xlink:href="#meffba180f4" y="54.189135"/>
      </g>
     </g>
     <g id="text_15">
      <!-- 20000 -->
      <g transform="translate(20.878125 57.988354)scale(0.1 -0.1)">
       <use xlink:href="#DejaVuSans-50"/>
       <use x="63.623047" xlink:href="#DejaVuSans-48"/>
       <use x="127.246094" xlink:href="#DejaVuSans-48"/>
       <use x="190.869141" xlink:href="#DejaVuSans-48"/>
       <use x="254.492188" xlink:href="#DejaVuSans-48"/>
      </g>
     </g>
    </g>
    <g id="text_16">
     <!-- number -->
     <g transform="translate(14.798438 150.552188)rotate(-90)scale(0.1 -0.1)">
      <defs>
       <path d="M 48.6875 27.296875 
Q 48.6875 37.203125 44.609375 42.84375 
Q 40.53125 48.484375 33.40625 48.484375 
Q 26.265625 48.484375 22.1875 42.84375 
Q 18.109375 37.203125 18.109375 27.296875 
Q 18.109375 17.390625 22.1875 11.75 
Q 26.265625 6.109375 33.40625 6.109375 
Q 40.53125 6.109375 44.609375 11.75 
Q 48.6875 17.390625 48.6875 27.296875 
z
M 18.109375 46.390625 
Q 20.953125 51.265625 25.265625 53.625 
Q 29.59375 56 35.59375 56 
Q 45.5625 56 51.78125 48.09375 
Q 58.015625 40.1875 58.015625 27.296875 
Q 58.015625 14.40625 51.78125 6.484375 
Q 45.5625 -1.421875 35.59375 -1.421875 
Q 29.59375 -1.421875 25.265625 0.953125 
Q 20.953125 3.328125 18.109375 8.203125 
L 18.109375 0 
L 9.078125 0 
L 9.078125 75.984375 
L 18.109375 75.984375 
z
" id="DejaVuSans-98"/>
      </defs>
      <use xlink:href="#DejaVuSans-110"/>
      <use x="63.378906" xlink:href="#DejaVuSans-117"/>
      <use x="126.757812" xlink:href="#DejaVuSans-109"/>
      <use x="224.169922" xlink:href="#DejaVuSans-98"/>
      <use x="287.646484" xlink:href="#DejaVuSans-101"/>
      <use x="349.169922" xlink:href="#DejaVuSans-114"/>
     </g>
    </g>
   </g>
   <g id="patch_90">
    <path d="M 59.690625 239.758125 
L 59.690625 22.318125 
" style="fill:none;stroke:#000000;stroke-linecap:square;stroke-linejoin:miter;stroke-width:0.8;"/>
   </g>
   <g id="patch_91">
    <path d="M 394.490625 239.758125 
L 394.490625 22.318125 
" style="fill:none;stroke:#000000;stroke-linecap:square;stroke-linejoin:miter;stroke-width:0.8;"/>
   </g>
   <g id="patch_92">
    <path d="M 59.690625 239.758125 
L 394.490625 239.758125 
" style="fill:none;stroke:#000000;stroke-linecap:square;stroke-linejoin:miter;stroke-width:0.8;"/>
   </g>
   <g id="patch_93">
    <path d="M 59.690625 22.318125 
L 394.490625 22.318125 
" style="fill:none;stroke:#000000;stroke-linecap:square;stroke-linejoin:miter;stroke-width:0.8;"/>
   </g>
   <g id="text_17">
    <!-- solvent classes -->
    <g transform="translate(181.610625 16.318125)scale(0.12 -0.12)">
     <use xlink:href="#DejaVuSans-115"/>
     <use x="52.099609" xlink:href="#DejaVuSans-111"/>
     <use x="113.28125" xlink:href="#DejaVuSans-108"/>
     <use x="141.064453" xlink:href="#DejaVuSans-118"/>
     <use x="200.244141" xlink:href="#DejaVuSans-101"/>
     <use x="261.767578" xlink:href="#DejaVuSans-110"/>
     <use x="325.146484" xlink:href="#DejaVuSans-116"/>
     <use x="364.355469" xlink:href="#DejaVuSans-32"/>
     <use x="396.142578" xlink:href="#DejaVuSans-99"/>
     <use x="451.123047" xlink:href="#DejaVuSans-108"/>
     <use x="478.90625" xlink:href="#DejaVuSans-97"/>
     <use x="540.185547" xlink:href="#DejaVuSans-115"/>
     <use x="592.285156" xlink:href="#DejaVuSans-115"/>
     <use x="644.384766" xlink:href="#DejaVuSans-101"/>
     <use x="705.908203" xlink:href="#DejaVuSans-115"/>
    </g>
   </g>
  </g>
 </g>
 <defs>
  <clipPath id="pd2d4ba7b03">
   <rect height="217.44" width="334.8" x="59.690625" y="22.318125"/>
  </clipPath>
 </defs>
</svg>
